# ProBuilder 5.0.3
# https://unity3d.com/unity/features/worldbuilding/probuilder
# 2/1/2022 11:54:12 AM

mtllib ./PipeCrownBottom.mtl
o PipeCrownBottom

g Pipe
v -0.2364599 0.02006427 0.09588383
v -0.2660782 0.06770138 0.09588384
v -0.2355285 0.02006427 0.1095005
v -0.2330358 0.0240215 0.1120648
v -0.2327517 0.02006427 0.1228635
v -0.2578231 0.07304496 0.1228638
v -0.2281811 0.02006427 0.1357239
v -0.2288927 0.01949921 0.1357241
v -0.2219019 0.02006427 0.1478422
v -0.248511 0.06081124 0.1723089
v -0.2140311 0.02006427 0.1589926
v -0.2140311 0.02437391 0.1589928
v -0.2047153 0.02006427 0.1689674
v -0.2209762 0.08397789 0.210556
v -0.194128 0.02006427 0.1775808
v -0.194128 0.02945683 0.1775808
v -0.1824664 0.02006427 0.1846724
v -0.2039456 0.06898659 0.2057714
v -0.1699479 0.02006427 0.1901099
v -0.1699479 0.02212108 0.1901097
v -0.1568055 0.02006427 0.1937922
v -0.1586073 0.08010028 0.2169337
v -0.1432842 0.02006427 0.1956507
v -0.1432842 0.02528633 0.1956506
v -0.1296357 0.02006427 0.1956507
v -0.1180118 0.09337746 0.2173157
v -0.1161143 0.02006427 0.1937922
v -0.1161143 0.0250197 0.1937923
v -0.102972 0.02006427 0.1901099
v -0.08592746 0.09337746 0.2270985
v -0.08579969 0.02109179 0.1846724
v -0.08728597 0.02380458 0.1881237
v -0.07879191 0.02006427 0.1775808
v -0.05394939 0.0900634 0.2015729
v -0.06820463 0.02006427 0.1689674
v -0.06820464 0.02638851 0.1689672
v -0.05888882 0.02006427 0.1589926
v -0.04472959 0.0900634 0.1585207
v -0.05101801 0.02006427 0.1478422
v -0.051018 0.02647695 0.1478424
v -0.04473881 0.02006427 0.1357239
v -0.01321486 0.09006339 0.1415553
v -0.04016822 0.02006427 0.1228635
v -0.04016823 0.03208894 0.1228638
v -0.03739135 0.02006427 0.1095005
v -0.01607791 0.06743373 0.1115484
v -0.03645995 0.02006427 0.09588382
v -0.03645995 0.02516352 0.09588385
v -0.03739135 0.02006427 0.08226716
v -0.009951681 0.09876402 0.0711603
v -0.04016822 0.02006427 0.06890415
v -0.04016823 0.0240887 0.0689044
v -0.04473881 0.02006427 0.05604372
v -0.008433223 0.09876403 0.03842257
v -0.05101801 0.02006427 0.04392544
v -0.051018 0.02534456 0.04392528
v -0.05888882 0.02006427 0.03277504
v -0.05888882 0.06277549 0.003296845
v -0.06820463 0.02006427 0.02280024
v -0.06820464 0.02913272 0.02280044
v -0.07879193 0.02006427 0.01418683
v -0.07277226 0.06664343 -0.01277877
v -0.09045345 0.02006427 0.0070953
v -0.09045345 0.02791467 0.007095334
v -0.102972 0.02006427 0.001657739
v -0.102972 0.06899628 -0.02815867
v -0.1161143 0.02006427 -0.002024576
v -0.1231463 0.02856301 -0.002024654
v -0.1296357 0.02006427 -0.003883041
v -0.1251367 0.09510085 -0.02932025
v -0.1432842 0.02006427 -0.003883041
v -0.1432842 0.03096217 -0.003882889
v -0.1568055 0.02006427 -0.002024576
v -0.1504753 0.09045958 -0.02915813
v -0.1699479 0.02006427 0.001657739
v -0.169289 0.02832758 0.002729412
v -0.1824664 0.02006427 0.0070953
v -0.179879 0.08099344 -0.01925231
v -0.194128 0.02006427 0.01418684
v -0.194128 0.02468115 0.01418686
v -0.2047153 0.02006427 0.02280023
v -0.2186512 0.08661632 0.000417699
v -0.2140311 0.02006427 0.03277502
v -0.2157105 0.02509291 0.03336143
v -0.2219019 0.02006427 0.04392542
v -0.2388227 0.06638592 0.04392528
v -0.2281811 0.02006427 0.0560437
v -0.2327431 0.02201701 0.06540871
v -0.2327517 0.02006427 0.06890413
v -0.2488391 0.05436382 0.07501172
v -0.2355286 0.02006427 0.08226719
v -0.2355286 0.02453792 0.08878088
v -0.1364599 0.02006427 0.09588383

vt 0.07952385 0.1448525
vt 0.07750266 0.20091
vt 0.09317234 0.1448525
vt 0.09590081 0.1469966
vt 0.05929031 -0.09228139
vt 0.06230818 -0.08788346
vt 0.0729388 -0.09228139
vt 0.0678381 -0.05531983
vt 0.03782592 0.1243953
vt 0.02943026 0.1824042
vt 0.05147441 0.1243953
vt -0.1662256 0.08085129
vt -0.1671343 0.08085141
vt -0.161308 0.09358306
vt -0.1568098 0.1020101
vt -0.1762583 0.07425498
vt -0.2234838 0.1013977
vt -0.1704907 0.08662495
vt -0.1734233 0.0879924
vt -0.02989004 0.02007186
vt -0.02988995 0.0243815
vt -0.01624155 0.02007186
vt 0.003053907 0.08398663
vt -0.05216654 0.1608705
vt -0.03853429 0.2376373
vt -0.03851806 0.1608705
vt -0.03851805 0.1686905
vt -0.0735985 0.02006461
vt -0.0735985 0.02945718
vt -0.05995002 0.02006461
vt -0.06733946 0.06898697
vt -0.09378665 0.1373832
vt -0.1050817 0.1937067
vt -0.08013817 0.1373832
vt -0.08013826 0.1391696
vt -0.1123548 0.02004396
vt -0.1123548 0.02210077
vt -0.09870628 0.02004396
vt -0.09419771 0.08007795
vt -0.1289571 0.09553508
vt -0.127591 0.1598875
vt -0.1153087 0.09553508
vt -0.1153087 0.1004068
vt -0.1432842 0.02005981
vt -0.1432842 0.02528186
vt -0.1296357 0.02005981
vt -0.1180118 0.09337249
vt -0.1550692 0.07197296
vt -0.1465037 0.1488231
vt -0.1414208 0.07197296
vt -0.1414208 0.07670035
vt -0.164093 0.02006742
vt -0.164093 0.02502285
vt -0.1504445 0.02006742
vt -0.1440114 0.09338143
vt -0.1602176 0.08782031
vt -0.1564116 0.1715998
vt -0.142214 0.08899452
vt -0.1447612 0.09270552
vt -0.1872033 0.05848505
vt -0.1906147 0.06162231
vt -0.1772513 0.05729676
vt -0.1747883 0.1351281
vt -0.1731889 0.0567419
vt -0.1690594 0.134688
vt -0.1595404 0.0567419
vt -0.1595403 0.06242128
vt -0.1700408 0.0200629
vt -0.1700407 0.02638713
vt -0.1563923 0.0200629
vt -0.146383 0.09006181
vt -0.1638522 0.02675018
vt -0.1553013 0.09765482
vt -0.1502037 0.02675018
vt -0.1502039 0.03308099
vt -0.1547385 0.02006459
vt -0.1547387 0.02647727
vt -0.14109 0.02006459
vt -0.1317645 0.09006413
vt -0.1428695 0.01963963
vt -0.1378074 0.09646422
vt -0.129221 0.01963963
vt -0.1292212 0.030596
vt -0.1284662 0.02006422
vt -0.1284664 0.03208889
vt -0.1148177 0.02006422
vt -0.1124864 0.06743375
vt -0.1117969 0.006000945
vt -0.1123856 0.05798148
vt -0.09814841 0.006000945
vt -0.09814844 0.01064785
vt -0.09317219 0.02006435
vt -0.09317221 0.02516359
vt -0.0795237 0.02006435
vt -0.07031529 0.09876404
vt -0.07293895 0.0003014136
vt -0.06764718 0.0842177
vt -0.05929048 0.0003014137
vt -0.05929071 0.004075644
vt -0.05147419 0.02006562
vt -0.05147441 0.02409005
vt -0.0378257 0.02006562
vt -0.03337998 0.09876449
vt -0.02917761 -0.01202687
vt -0.030235 0.07641031
vt -0.01552913 -0.01202687
vt -0.01552899 -0.007327936
vt -0.006464694 0.02006305
vt -0.00646457 0.02534334
vt 0.007183789 0.02006305
vt 0.03126659 0.06277458
vt 0.01624156 -0.009723624
vt 0.03778529 0.03748951
vt 0.02989004 -0.009723624
vt 0.0298899 -0.001519948
vt 0.03851816 0.0200654
vt 0.03851804 0.02913384
vt 0.05216667 0.0200654
vt 0.06451481 0.0666441
vt 0.05995009 -0.008495688
vt 0.06881767 0.04493056
vt 0.07359856 -0.008495688
vt 0.07359854 -0.001651409
vt 0.08013817 0.02006444
vt 0.08013816 0.02791484
vt 0.09378665 0.02006444
vt 0.1056655 0.06899634
vt 0.09870626 0.002438219
vt 0.1067506 0.05917135
vt 0.1123547 0.002438219
vt 0.1191259 0.008808266
vt 0.1153085 0.02148361
vt 0.122275 0.03003612
vt 0.128957 0.02148361
vt 0.1279636 0.0931588
vt 0.1296357 0.02024876
vt 0.1251367 0.09947969
vt 0.1432842 0.02024876
vt 0.1432842 0.03056969
vt 0.1414209 0.02006395
vt 0.1414209 0.03096185
vt 0.1550694 0.02006395
vt 0.1451034 0.0904589
vt 0.1504446 0.03345996
vt 0.1370285 0.1079704
vt 0.164093 0.03345996
vt 0.1637477 0.04087043
vt 0.1565386 0.009975689
vt 0.1563612 0.01833233
vt 0.1701871 0.009975689
vt 0.1573169 0.06677624
vt 0.1595895 0.04807641
vt 0.1436889 0.1125778
vt 0.1732379 0.04807641
vt 0.1732379 0.0524376
vt 0.1595404 0.02006391
vt 0.1595404 0.02468079
vt 0.1731888 0.02006391
vt 0.1698737 0.08661587
vt 0.1563924 0.06664004
vt 0.1495464 0.1378966
vt 0.1700408 0.06664004
vt 0.1716157 0.07163223
vt 0.1502037 0.0510595
vt 0.1516512 0.05619331
vt 0.1638522 0.0510595
vt 0.17361 0.09921601
vt 0.14109 0.07363565
vt 0.1488745 0.1223328
vt 0.1547385 0.07363565
vt 0.1651523 0.07541354
vt 0.1292211 0.1176207
vt 0.1395731 0.1198933
vt 0.1428695 0.1176207
vt 0.1540118 0.153801
vt 0.1148179 0.1017944
vt 0.1240709 0.1390361
vt 0.1284664 0.1017944
vt 0.1348439 0.1053983
vt 0.09814807 -0.002710495
vt 0.1046466 0.001785183
vt 0.1117965 -0.002710495
vt 0.1138177 0.04177181
vt -0.2364599 0.09588383
vt -0.1364599 0.09588383
vt -0.2355285 0.1095005
vt -0.2327517 0.1228635
vt -0.2281811 0.1357239
vt -0.2219019 0.1478422
vt -0.2140311 0.1589926
vt -0.2047153 0.1689674
vt -0.194128 0.1775808
vt -0.1824664 0.1846724
vt -0.1699479 0.1901099
vt -0.1568055 0.1937922
vt -0.1432842 0.1956507
vt -0.1296357 0.1956507
vt -0.1161143 0.1937922
vt -0.102972 0.1901099
vt -0.1017458 0.1895874
vt -0.1351855 0.09534416
vt -0.08454312 0.1841489
vt -0.087285 0.1851619
vt -0.08021514 0.1780576
vt -0.07879191 0.1775808
vt -0.06820463 0.1689674
vt -0.05888882 0.1589926
vt -0.05101801 0.1478422
vt -0.04473881 0.1357239
vt -0.04016822 0.1228635
vt -0.03739135 0.1095005
vt -0.03645995 0.09588382
vt -0.03739135 0.08226716
vt -0.04016822 0.06890415
vt -0.04473881 0.05604372
vt -0.05101801 0.04392544
vt -0.05888882 0.03277504
vt -0.06820463 0.02280024
vt -0.07879193 0.01418683
vt -0.09045345 0.0070953
vt -0.102972 0.001657739
vt -0.1161143 -0.002024576
vt -0.1296357 -0.003883041
vt -0.1432842 -0.003883041
vt -0.1568055 -0.002024576
vt -0.1699479 0.001657739
vt -0.1824664 0.0070953
vt -0.194128 0.01418684
vt -0.2047153 0.02280023
vt -0.2140311 0.03277502
vt -0.2219019 0.04392542
vt -0.2281811 0.0560437
vt -0.2327517 0.06890413
vt -0.2355286 0.08226719

vn -0.9194365 -0.381612 -0.09491496
vn -0.8764126 -0.4813908 0.01279961
vn -0.9325449 0.05773669 0.3564079
vn -0.8701477 -0.08354158 0.4856581
vn -0.9584843 -0.2197974 0.1816507
vn -0.8292055 -0.4667222 -0.3075526
vn 0.1834482 -0.8342983 -0.5198972
vn 0.08362358 -0.6784246 -0.7298953
vn -0.4036905 -0.8630021 0.3037453
vn -0.4632091 -0.597345 0.6546879
vn -0.5209564 -0.2006955 0.829654
vn -0.2358184 -0.156508 0.9591115
vn -0.6521153 -0.4152039 0.6343117
vn -0.4100006 -0.5198446 0.7494406
vn -0.2514856 -0.1765306 0.9516259
vn 0.121015 -0.1941428 0.9734803
vn -0.5037244 -0.3958108 0.7678513
vn -0.4009589 -0.4565408 0.7942307
vn -0.1264571 -0.1340704 0.9828702
vn 0.07153075 -0.09491338 0.9929123
vn -0.2100522 -0.2719424 0.9391088
vn 0.022678 -0.3077302 0.9512033
vn 0.1905322 -0.1002048 0.9765534
vn 0.4361421 -0.07654403 0.8966165
vn 0.03992891 -0.2195355 0.9747871
vn 0.2887738 -0.261068 0.9211152
vn 0.4897206 -0.08814921 0.8674119
vn 0.7501014 -0.1485675 0.6444188
vn 0.2374249 -0.3678013 0.8990838
vn -0.1301252 -0.4654738 0.8754436
vn 0.3488342 -0.562607 0.7495252
vn -0.6925595 -0.6498891 0.3130585
vn 0.5821037 -0.4564326 0.6729224
vn 0.7939937 -0.3873969 0.4685057
vn 0.8636927 -0.1290165 0.4872265
vn 0.9824418 -0.04023805 0.1821785
vn 0.7606887 -0.1135362 0.6391105
vn 0.8889432 -0.1247005 0.4407152
vn 0.9607242 -0.04444385 0.2739227
vn 0.9937227 -0.1117091 0.006031095
vn 0.8532682 -0.3071603 0.4214093
vn 0.9086915 -0.3665415 0.1998177
vn 0.992166 -0.1207203 -0.03214498
vn 0.9441153 -0.1215471 -0.3063864
vn 0.9264305 -0.3097987 0.2138953
vn 0.9330124 -0.3506846 0.0806735
vn 0.964649 -0.1130367 -0.2380652
vn 0.8887962 -0.09042849 -0.4492927
vn 0.9608644 -0.258269 -0.1001841
vn 0.8917823 -0.3063558 -0.3329721
vn 0.835799 -0.1007977 -0.5397035
vn 0.6125562 -0.1381163 -0.7782666
vn 0.87328 -0.3482889 -0.3407005
vn 0.7391211 -0.4107357 -0.5338504
vn 0.662643 -0.1316743 -0.7372693
vn 0.4204082 -0.0925831 -0.9025992
vn 0.7610564 -0.2965209 -0.5769476
vn 0.5464849 -0.3962083 -0.7378165
vn 0.3613431 -0.1508118 -0.9201559
vn -0.1858865 -0.1779982 -0.9663141
vn 0.5948628 -0.3565011 -0.720448
vn 0.4058464 -0.4252568 -0.808978
vn 0.1514487 -0.1475651 -0.9773883
vn -0.1732765 -0.1411687 -0.9747034
vn 0.3721724 -0.3730103 -0.8499123
vn 0.2646535 -0.4664962 -0.8440022
vn 0.02473384 -0.1684274 -0.9854037
vn -0.0265854 -0.2433283 -0.9695795
vn 0.1924993 -0.2163154 -0.9571581
vn 0.1178315 -0.2831776 -0.9518015
vn -0.2946178 -0.08705512 -0.9516416
vn -0.4585579 -0.1057989 -0.8823441
vn -0.1221237 -0.2629261 -0.9570557
vn -0.2567315 -0.2851846 -0.9234493
vn -0.5446528 0.02402506 -0.8383174
vn -0.6849664 -0.003274879 -0.7285673
vn -0.373726 -0.2352462 -0.8972113
vn -0.4264612 -0.3124472 -0.8488272
vn -0.6943831 -0.08525074 -0.7145379
vn -0.7786739 -0.09702659 -0.6198813
vn -0.6318855 -0.2758173 -0.7243242
vn -0.6537047 -0.3462506 -0.6728898
vn -0.7994834 -0.2549583 -0.5438957
vn -0.8395262 -0.2470059 -0.4839254
vn -0.8166018 -0.2754753 -0.5072227
vn -0.8183153 -0.2930328 -0.4944613
vn -0.8428434 -0.4107124 -0.3477505
vn -0.8730689 -0.3751845 -0.311428
vn -0.8805373 -0.4196571 -0.2203226
vn -0.9218431 -0.3736641 -0.1028623
vn -0.9909414 -0.1313303 -0.02806244
vn -0.9630894 -0.2689366 -0.01148656
vn 0 -1 0
vn 0.05369588 -0.998375 -0.01908352
vn -0.08506517 -0.9945645 0.06004556

usemtl Lit
f 1/184/93 93/185/93 3/186/93
f 3/186/93 93/185/93 5/187/93
f 5/187/93 93/185/93 7/188/93
f 7/188/93 93/185/93 9/189/93
f 9/189/93 93/185/93 11/190/93
f 11/190/93 93/185/93 13/191/93
f 13/191/93 93/185/93 15/192/93
f 15/192/93 93/185/93 17/193/93
f 17/193/93 93/185/93 19/194/93
f 19/194/93 93/185/93 21/195/93
f 21/195/93 93/185/93 23/196/93
f 23/196/93 93/185/93 25/197/93
f 25/197/93 93/185/93 27/198/93
f 27/198/93 93/185/93 29/199/93
f 29/200/94 93/201/94 31/202/94
f 31/203/95 93/81/95 33/204/95
f 33/205/93 93/185/93 35/206/93
f 35/206/93 93/185/93 37/207/93
f 37/207/93 93/185/93 39/208/93
f 39/208/93 93/185/93 41/209/93
f 41/209/93 93/185/93 43/210/93
f 43/210/93 93/185/93 45/211/93
f 45/211/93 93/185/93 47/212/93
f 47/212/93 93/185/93 49/213/93
f 49/213/93 93/185/93 51/214/93
f 51/214/93 93/185/93 53/215/93
f 53/215/93 93/185/93 55/216/93
f 55/216/93 93/185/93 57/217/93
f 57/217/93 93/185/93 59/218/93
f 59/218/93 93/185/93 61/219/93
f 61/219/93 93/185/93 63/220/93
f 63/220/93 93/185/93 65/221/93
f 65/221/93 93/185/93 67/222/93
f 67/222/93 93/185/93 69/223/93
f 69/223/93 93/185/93 71/224/93
f 71/224/93 93/185/93 73/225/93
f 73/225/93 93/185/93 75/226/93
f 75/226/93 93/185/93 77/227/93
f 77/227/93 93/185/93 79/228/93
f 79/228/93 93/185/93 81/229/93
f 81/229/93 93/185/93 83/230/93
f 83/230/93 93/185/93 85/231/93
f 85/231/93 93/185/93 87/232/93
f 87/232/93 93/185/93 89/233/93
f 89/233/93 93/185/93 91/234/93
f 91/234/93 93/185/93 1/184/93
f 4/4/4 2/2/2 1/1/1
f 1/1/1 3/3/3 4/4/4
f 6/8/6 4/6/4 3/5/3
f 3/5/3 5/7/5 6/8/6
f 8/11/8 6/10/6 5/9/5
f 5/9/5 7/11/7 8/11/8
f 10/15/10 8/13/8 7/12/7
f 7/12/7 9/14/9 10/15/10
f 12/19/12 10/17/10 9/16/9
f 9/16/9 11/18/11 12/19/12
f 14/23/14 12/21/12 11/20/11
f 11/20/11 13/22/13 14/23/14
f 16/27/16 14/25/14 13/24/13
f 13/24/13 15/26/15 16/27/16
f 18/31/18 16/29/16 15/28/15
f 15/28/15 17/30/17 18/31/18
f 20/35/20 18/33/18 17/32/17
f 17/32/17 19/34/19 20/35/20
f 22/39/22 20/37/20 19/36/19
f 19/36/19 21/38/21 22/39/22
f 24/43/24 22/41/22 21/40/21
f 21/40/21 23/42/23 24/43/24
f 26/47/26 24/45/24 23/44/23
f 23/44/23 25/46/25 26/47/26
f 28/51/28 26/49/26 25/48/25
f 25/48/25 27/50/27 28/51/28
f 30/55/30 28/53/28 27/52/27
f 27/52/27 29/54/29 30/55/30
f 32/59/32 30/57/30 29/56/29
f 29/56/29 31/58/31 32/59/32
f 34/63/34 32/61/32 31/60/31
f 31/60/31 33/62/33 34/63/34
f 36/67/36 34/65/34 33/64/33
f 33/64/33 35/66/35 36/67/36
f 38/71/38 36/69/36 35/68/35
f 35/68/35 37/70/37 38/71/38
f 40/75/40 38/73/38 37/72/37
f 37/72/37 39/74/39 40/75/40
f 42/79/42 40/77/40 39/76/39
f 39/76/39 41/78/41 42/79/42
f 44/83/44 42/81/42 41/80/41
f 41/80/41 43/82/43 44/83/44
f 46/87/46 44/85/44 43/84/43
f 43/84/43 45/86/45 46/87/46
f 48/91/48 46/89/46 45/88/45
f 45/88/45 47/90/47 48/91/48
f 50/95/50 48/93/48 47/92/47
f 47/92/47 49/94/49 50/95/50
f 52/99/52 50/97/50 49/96/49
f 49/96/49 51/98/51 52/99/52
f 54/103/54 52/101/52 51/100/51
f 51/100/51 53/102/53 54/103/54
f 56/107/56 54/105/54 53/104/53
f 53/104/53 55/106/55 56/107/56
f 58/111/58 56/109/56 55/108/55
f 55/108/55 57/110/57 58/111/58
f 60/115/60 58/113/58 57/112/57
f 57/112/57 59/114/59 60/115/60
f 62/119/62 60/117/60 59/116/59
f 59/116/59 61/118/61 62/119/62
f 64/123/64 62/121/62 61/120/61
f 61/120/61 63/122/63 64/123/64
f 66/127/66 64/125/64 63/124/63
f 63/124/63 65/126/65 66/127/66
f 68/131/68 66/129/66 65/128/65
f 65/128/65 67/130/67 68/131/68
f 70/135/70 68/133/68 67/132/67
f 67/132/67 69/134/69 70/135/70
f 72/139/72 70/137/70 69/136/69
f 69/136/69 71/138/71 72/139/72
f 74/143/74 72/141/72 71/140/71
f 71/140/71 73/142/73 74/143/74
f 76/147/76 74/145/74 73/144/73
f 73/144/73 75/146/75 76/147/76
f 78/151/78 76/149/76 75/148/75
f 75/148/75 77/150/77 78/151/78
f 80/155/80 78/153/78 77/152/77
f 77/152/77 79/154/79 80/155/80
f 82/159/82 80/157/80 79/156/79
f 79/156/79 81/158/81 82/159/82
f 84/163/84 82/161/82 81/160/81
f 81/160/81 83/162/83 84/163/84
f 86/167/86 84/165/84 83/164/83
f 83/164/83 85/166/85 86/167/86
f 88/171/88 86/169/86 85/168/85
f 85/168/85 87/170/87 88/171/88
f 90/175/90 88/173/88 87/172/87
f 87/172/87 89/174/89 90/175/90
f 92/179/92 90/177/90 89/176/89
f 89/176/89 91/178/91 92/179/92
f 2/183/2 92/181/92 91/180/91
f 91/180/91 1/182/1 2/183/2

